<svg width="60" height="15" xmlns="http://www.w3.org/2000/svg">
  <!-- Created with Method Draw - http://github.com/duopixel/Method-Draw/ -->

  <g>
    <title>background</title>
    <rect fill="none" id="canvas_background" height="17" width="62" y="-1" x="-1" />
    <g display="none" overflow="visible" y="0" x="0" height="100%" width="100%" id="canvasGrid">
      <rect fill="url(#gridpattern)" stroke-width="0" y="1" x="1" height="600" width="800" />
    </g>
  </g>
  <g>
    <title>Layer 1</title>
    <style transform="matrix(0.09409462973980798,0,0,0.09409462973980798,0,0) " type="text/css">
      .st0 {
        fill: #fff;
      }
    </style>
    <g stroke="null" id="svg_16">
      <path stroke="null" id="svg_5"
        d="m1.73533,11.44121c0.08469,0.04705 0.21642,0.04705 0.34815,0.04705c0.31051,0 0.61162,-0.08469 0.61162,-0.52693l0,-5.85269l1.54315,0l0,5.98442c0,1.14795 -0.44224,1.71252 -2.02303,1.71252c-0.17878,0 -0.34815,0 -0.52693,-0.04705c0.04705,0 0.04705,-1.31732 0.04705,-1.31732zm2.50292,-7.21706l-1.53374,0l0,-1.27969l1.54315,0l0,1.27969l-0.00941,0z"
        class="st0" />
      <path stroke="null" id="svg_6"
        d="m10.84369,10.78255l-1.4961,0l0,-0.79039l-0.04705,0c-0.3952,0.61162 -1.10091,0.92213 -1.71252,0.92213c-1.67488,0 -2.07008,-0.92213 -2.07008,-2.33355l0,-3.47209l1.58079,0l0,3.20863c0,0.92213 0.26346,1.41142 1.01622,1.41142c0.83744,0 1.23264,-0.47988 1.23264,-1.62784l0,-2.99221l1.54315,0l-0.04705,5.67391l0,0z"
        class="st0" />
      <path stroke="null" id="svg_7"
        d="m11.89755,5.09923l1.4961,0l0,0.79039l0.04705,0c0.3952,-0.61162 1.10091,-0.92213 1.71252,-0.92213c1.67488,0 2.07008,0.92213 2.07008,2.33355l0,3.51914l-1.54315,0l0,-3.20863c0,-0.92213 -0.26346,-1.41142 -1.01622,-1.41142c-0.83744,0 -1.23264,0.47988 -1.23264,1.62784l0,2.99221l-1.53374,0l0,-5.72095l0,0z"
        class="st0" />
      <path stroke="null" id="svg_8"
        d="m21.05296,4.9675c1.80662,0 2.94516,1.18559 2.94516,2.99221s-1.14795,2.99221 -2.94516,2.99221s-2.94516,-1.18559 -2.94516,-2.99221c-0.00941,-1.79721 1.18559,-2.99221 2.94516,-2.99221zm0,4.79883c1.05386,0 1.36437,-0.92213 1.36437,-1.80662c0,-0.92213 -0.31051,-1.84425 -1.36437,-1.84425c-1.05386,0 -1.36437,0.92213 -1.36437,1.84425s0.3011,1.80662 1.36437,1.80662z"
        class="st0" />
      <path stroke="null" id="svg_9"
        d="m25.31545,6.37892l0,0c0.26346,-0.75276 1.18559,-1.31732 2.20181,-1.27969l0,0.3952c-0.44224,-0.04705 -1.05386,0.04705 -1.54315,0.57398c-0.3952,0.44224 -0.57398,0.75276 -0.61162,1.62784l0,3.07689l-0.3952,0l0,-5.62686l0.3952,0l-0.04705,1.23264l0,0z"
        class="st0" />
      <path stroke="null" id="svg_10"
        d="m28.04419,8.00676c0,1.31732 0.70571,2.54996 2.07008,2.54996c1.05386,0 1.84425,-0.61162 2.02303,-1.67488l0.3952,0c-0.21642,1.31732 -1.10091,2.07008 -2.41823,2.07008c-1.67488,0 -2.51233,-1.31732 -2.51233,-2.86048s0.79039,-3.03926 2.51233,-3.03926c1.75957,0 2.54996,1.41142 2.46528,2.99221l-4.53536,-0.03764l0,0zm4.14016,-0.34815c0,-1.18559 -0.75276,-2.2865 -2.07008,-2.2865c-1.23264,0 -1.97599,1.14795 -2.07008,2.2865l4.14016,0z"
        class="st0" />
      <path stroke="null" id="svg_11"
        d="m37.72653,6.8588c-0.08469,-1.01622 -0.88449,-1.4961 -1.8913,-1.4961c-1.41142,0 -2.15477,1.23264 -2.15477,2.54996c0,1.54315 0.70571,2.64406 2.15477,2.64406c1.05386,0 1.84425,-0.75276 1.97599,-1.75957l0.3952,0c-0.17878,1.36437 -1.14795,2.10772 -2.38059,2.10772c-1.84425,0 -2.59701,-1.44906 -2.59701,-2.99221s0.92213,-2.90752 2.59701,-2.90752c1.23264,0 2.20181,0.57398 2.33355,1.8913l-0.44224,0l0,-0.03764l0.00941,0z"
        class="st0" />
      <path stroke="null" id="svg_12"
        d="m41.3774,5.01455c1.67488,0 2.59701,1.36437 2.59701,2.94516s-0.92213,2.94516 -2.59701,2.94516c-1.67488,0 -2.59701,-1.36437 -2.59701,-2.94516c0,-1.62784 0.93154,-2.94516 2.59701,-2.94516zm0,5.54217c1.41142,0 2.15477,-1.23264 2.15477,-2.59701c0,-1.36437 -0.75276,-2.59701 -2.15477,-2.59701s-2.15477,1.23264 -2.15477,2.59701s0.75276,2.59701 2.15477,2.59701z"
        class="st0" />
      <path stroke="null" id="svg_13"
        d="m45.2541,6.37892l0,0c0.26346,-0.75276 1.18559,-1.31732 2.20181,-1.27969l0,0.3952c-0.44224,-0.04705 -1.05386,0.04705 -1.54315,0.57398c-0.3952,0.44224 -0.57398,0.75276 -0.61162,1.62784l0,3.07689l-0.44224,0l0,-5.62686l0.44224,0l-0.04705,1.23264l0,0z"
        class="st0" />
      <path stroke="null" id="svg_14"
        d="m52.16064,9.58755l0,0c-0.47988,0.88449 -1.18559,1.31732 -2.20181,1.31732c-1.67488,0 -2.41823,-1.36437 -2.41823,-2.94516c0,-1.67488 0.79039,-2.99221 2.51233,-2.99221c0.92213,0 1.80662,0.52693 2.07008,1.41142l0,0l0,-3.43445l0.3952,0l0,7.82867l-0.3952,0l0,-1.18559l0.03764,0zm-0.04705,-1.58079c0,-1.31732 -0.65866,-2.59701 -2.10772,-2.59701c-1.4961,0 -2.10772,1.23264 -2.10772,2.59701c0,1.31732 0.65866,2.59701 2.10772,2.59701s2.10772,-1.31732 2.10772,-2.59701z"
        class="st0" />
      <path stroke="null" id="svg_15"
        d="m53.96726,8.92888c0.04705,1.05386 0.83744,1.67488 1.8913,1.67488c0.75276,0 1.80662,-0.21642 1.80662,-1.18559c0,-0.92213 -0.96917,-1.10091 -1.93835,-1.31732c-0.96917,-0.17878 -1.93835,-0.44224 -1.93835,-1.58079c0,-1.14795 1.10091,-1.44906 2.07008,-1.44906c1.18559,0 2.07008,0.52693 2.07008,1.80662l-0.3952,0c0,-1.01622 -0.75276,-1.44906 -1.67488,-1.44906c-0.75276,0 -1.62784,0.31051 -1.62784,1.10091c0,0.92213 0.96917,1.05386 1.8913,1.23264c1.14795,0.21642 2.02303,0.47988 2.02303,1.67488c0,1.23264 -1.23264,1.54315 -2.20181,1.54315c-1.27969,0 -2.24886,-0.70571 -2.2865,-2.02303l0.31051,0l0,-0.02823z"
        class="st0" />
    </g>
  </g>
</svg>